<?xml version="1.0" encoding="utf-8"?>
<!-- Generator: Adobe Illustrator 16.0.0, SVG Export Plug-In . SVG Version: 6.00 Build 0)  -->
<!DOCTYPE svg PUBLIC "-//W3C//DTD SVG 1.1//EN" "http://www.w3.org/Graphics/SVG/1.1/DTD/svg11.dtd">
<svg version="1.1" id="Layer_1" xmlns="http://www.w3.org/2000/svg" xmlns:xlink="http://www.w3.org/1999/xlink" x="0px" y="0px"
	 width="30px" height="28px" viewBox="0 0 30 28" enable-background="new 0 0 30 28" xml:space="preserve">
<g>
	<g>
		<path fill="#606A71" d="M23.908,27.252c0.35,0.234,0.823,0.051,0.928-0.354l0.519-2.043c0.04-0.16-0.079-0.314-0.245-0.314h-3.488
			c-0.211,0-0.328,0.242-0.198,0.406C22.299,26.059,23.269,26.816,23.908,27.252z"/>
		<path fill="#606A71" d="M1.166,15.045c0.89,1.771,1.716,3.697,1.421,5.578c-0.025,0.166,0.104,0.316,0.273,0.316h1.226
			c0.088,0,0.169-0.041,0.22-0.109c1.487-2.012,3.499-2.641,3.499-2.641c1.816-0.549,3.775-1.031,5.032-1.031
			c2.344,0,2.904,1.924,3.03,2.66c0.027,0.162,0.169,0.281,0.336,0.281c0.151,0,0.295-0.063,0.396-0.176l1.09-1.207
			c0.11-0.119,0.309-0.059,0.334,0.1c0.335,2.107,1.996,4.283,2.31,4.451c0.028,0.016,0.061,0.021,0.092,0.021h4.873
			c0.102,0,0.184-0.074,0.192-0.172c0.173-1.848,3.007-4.516,4.093-5.479C29.85,17.404,30,17.066,30,16.711v-2.329
			c0-0.031-0.007-0.059-0.02-0.088l-2.765-5.531c-0.02-0.041-0.055-0.073-0.095-0.091c-2.266-1.035-2.144-3.614-2.1-4.083
			c0.003-0.047-0.01-0.097-0.038-0.135l-0.666-0.867c-0.063-0.082-0.183-0.101-0.268-0.038l-0.304,0.22
			c0-1.339-0.558-2.485-0.869-3.026c-0.08-0.142-0.288-0.126-0.349,0.025l-0.636,1.641c-0.008,0.022-0.011,0.047-0.011,0.069
			c-0.004,1.361-0.229,2.275-0.472,2.863c-0.218,0.527-0.86,0.723-1.339,0.412c-0.94-0.613-2.464-1.609-2.986-1.949
			c-0.097-0.063-0.115-0.195-0.043-0.286l1.467-1.782c0.104-0.126,0.013-0.318-0.151-0.318h-4.57c-0.05,0-0.097,0.019-0.131,0.054
			l-1.499,1.414c-0.079,0.076-0.082,0.202-0.004,0.277l0.396,0.399c-1.275,0.424-2.134-0.437-2.442-0.824
			C10.036,2.65,9.903,2.641,9.822,2.719L6.544,5.878c-0.029,0.029-0.05,0.063-0.057,0.104c-0.345,1.996-4.189,3.354-5.393,3.73
			C0.871,9.782,0.701,9.964,0.647,10.19l-0.563,2.344c-0.034,0.147-0.019,0.303,0.044,0.437C0.437,13.628,0.805,14.324,1.166,15.045
			z"/>
	</g>
</g>
</svg>
