<?xml version="1.0" encoding="utf-8"?>
<!-- Generator: Adobe Illustrator 16.0.0, SVG Export Plug-In . SVG Version: 6.00 Build 0)  -->
<!DOCTYPE svg PUBLIC "-//W3C//DTD SVG 1.1//EN" "http://www.w3.org/Graphics/SVG/1.1/DTD/svg11.dtd">
<svg version="1.1" id="Layer_1" xmlns="http://www.w3.org/2000/svg" xmlns:xlink="http://www.w3.org/1999/xlink" x="0px" y="0px"
	 width="20px" height="20px" viewBox="0 0 20 20" enable-background="new 0 0 20 20" xml:space="preserve">
<g>
	<g>
		<path fill="#606A71" d="M17.656,1.563h-0.938V0h-1.563v1.563H4.844V0H3.281v1.563H2.344C1.051,1.563,0,2.614,0,3.906v13.75
			C0,18.949,1.051,20,2.344,20h15.313C18.949,20,20,18.949,20,17.656V3.906C20,2.614,18.949,1.563,17.656,1.563z M18.438,17.656
			c0,0.431-0.351,0.781-0.781,0.781H2.344c-0.431,0-0.781-0.351-0.781-0.781V7.344h16.875V17.656z M18.438,5.781H1.563V3.906
			c0-0.431,0.351-0.781,0.781-0.781h0.938v1.563h1.563V3.125h10.313v1.563h1.563V3.125h0.938c0.431,0,0.781,0.351,0.781,0.781V5.781
			z"/>
	</g>
</g>
<g>
	<g>
		<rect x="2.969" y="8.984" fill="#606A71" width="1.563" height="1.563"/>
	</g>
</g>
<g>
	<g>
		<rect x="6.094" y="8.984" fill="#606A71" width="1.563" height="1.563"/>
	</g>
</g>
<g>
	<g>
		<rect x="9.219" y="8.984" fill="#606A71" width="1.563" height="1.563"/>
	</g>
</g>
<g>
	<g>
		<rect x="12.344" y="8.984" fill="#606A71" width="1.563" height="1.563"/>
	</g>
</g>
<g>
	<g>
		<rect x="15.469" y="8.984" fill="#606A71" width="1.563" height="1.563"/>
	</g>
</g>
<g>
	<g>
		<rect x="2.969" y="12.109" fill="#606A71" width="1.563" height="1.563"/>
	</g>
</g>
<g>
	<g>
		<rect x="6.094" y="12.109" fill="#606A71" width="1.563" height="1.563"/>
	</g>
</g>
<g>
	<g>
		<rect x="9.219" y="12.109" fill="#606A71" width="1.563" height="1.563"/>
	</g>
</g>
<g>
	<g>
		<rect x="12.344" y="12.109" fill="#606A71" width="1.563" height="1.563"/>
	</g>
</g>
<g>
	<g>
		<rect x="2.969" y="15.234" fill="#606A71" width="1.563" height="1.563"/>
	</g>
</g>
<g>
	<g>
		<rect x="6.094" y="15.234" fill="#606A71" width="1.563" height="1.563"/>
	</g>
</g>
<g>
	<g>
		<rect x="9.219" y="15.234" fill="#606A71" width="1.563" height="1.563"/>
	</g>
</g>
<g>
	<g>
		<rect x="12.344" y="15.234" fill="#606A71" width="1.563" height="1.563"/>
	</g>
</g>
<g>
	<g>
		<rect x="15.469" y="12.109" fill="#606A71" width="1.563" height="1.563"/>
	</g>
</g>
</svg>
