<?xml version="1.0" encoding="utf-8"?>
<!-- Generator: Adobe Illustrator 16.0.0, SVG Export Plug-In . SVG Version: 6.00 Build 0)  -->
<!DOCTYPE svg PUBLIC "-//W3C//DTD SVG 1.1//EN" "http://www.w3.org/Graphics/SVG/1.1/DTD/svg11.dtd">
<svg version="1.1" id="Layer_1" xmlns="http://www.w3.org/2000/svg" xmlns:xlink="http://www.w3.org/1999/xlink" x="0px" y="0px"
	 width="15px" height="11px" viewBox="0 0 15 11" enable-background="new 0 0 15 11" xml:space="preserve">
<g>
	<path fill="#FFFFFF" d="M14.381,1.511l-1.253-1.252C12.956,0.086,12.749,0,12.503,0s-0.455,0.086-0.628,0.258L5.833,6.311
		L3.125,3.592C2.953,3.42,2.744,3.335,2.499,3.335S2.044,3.42,1.872,3.592L0.62,4.846c-0.172,0.171-0.258,0.38-0.258,0.626
		c0,0.245,0.086,0.455,0.258,0.626l3.334,3.335l1.253,1.252c0.172,0.172,0.38,0.258,0.626,0.258s0.454-0.086,0.626-0.258
		l1.253-1.252l6.668-6.67c0.172-0.172,0.258-0.38,0.258-0.626C14.639,1.892,14.553,1.683,14.381,1.511z"/>
</g>
</svg>
