<?xml version="1.0" encoding="utf-8"?>
<!-- Generator: Adobe Illustrator 16.0.0, SVG Export Plug-In . SVG Version: 6.00 Build 0)  -->
<!DOCTYPE svg PUBLIC "-//W3C//DTD SVG 1.1//EN" "http://www.w3.org/Graphics/SVG/1.1/DTD/svg11.dtd">
<svg version="1.1" id="Layer_1" xmlns="http://www.w3.org/2000/svg" xmlns:xlink="http://www.w3.org/1999/xlink" x="0px" y="0px"
	 width="45px" height="45px" viewBox="0 0 45 45" enable-background="new 0 0 45 45" xml:space="preserve">
<path fill="#FFFFFF" d="M22.491,0c6.208,0,11.83,2.524,15.91,6.588c4.064,4.082,6.589,9.703,6.589,15.911S42.465,34.328,38.4,38.41
	c-4.082,4.064-9.701,6.589-15.91,6.589S10.663,42.475,6.599,38.41c-4.082-4.082-6.59-9.701-6.59-15.911
	c0-6.208,2.507-11.83,6.588-15.911C10.663,2.524,16.282,0,22.491,0L22.491,0z M33.957,21.271c0.675,0,1.211,0.554,1.211,1.228
	s-0.536,1.228-1.211,1.228H22.525h-0.035c-0.45,0-0.848-0.259-1.055-0.622l-0.018-0.018l0,0l-0.017-0.035l0,0v-0.018l0,0L21.384,23
	l0,0l-0.018-0.034l0,0v-0.018l0,0l-0.018-0.035l0,0l-0.017-0.018l0,0v-0.035l0,0l-0.018-0.035l0,0v-0.017l0,0l-0.018-0.035l0,0
	v-0.035l0,0v-0.018v-0.018l-0.017-0.017l0,0v-0.035l0,0v-0.035l0,0v-0.031l0,0v-0.017l0,0v-0.035l0,0V22.5l0,0V7.852
	c0-0.675,0.536-1.211,1.21-1.211s1.228,0.536,1.228,1.211v13.42H33.957z M36.672,8.319c-3.632-3.631-8.647-5.863-14.181-5.863
	S11.941,4.686,8.31,8.319C4.696,11.95,2.447,16.966,2.447,22.5S4.695,33.049,8.31,36.682c3.631,3.631,8.647,5.862,14.181,5.862
	s10.549-2.231,14.181-5.862c3.631-3.632,5.88-8.647,5.88-14.182C42.552,16.966,40.305,11.95,36.672,8.319L36.672,8.319z"/>
</svg>
