<?xml version="1.0" encoding="utf-8"?>
<!-- Generator: Adobe Illustrator 16.0.0, SVG Export Plug-In . SVG Version: 6.00 Build 0)  -->
<!DOCTYPE svg PUBLIC "-//W3C//DTD SVG 1.1//EN" "http://www.w3.org/Graphics/SVG/1.1/DTD/svg11.dtd">
<svg version="1.1" id="Layer_1" xmlns="http://www.w3.org/2000/svg" xmlns:xlink="http://www.w3.org/1999/xlink" x="0px" y="0px"
	 width="45px" height="45px" viewBox="0 0 45 45" enable-background="new 0 0 45 45" xml:space="preserve">
<g>
	<g>
		<g>
			<path fill="#FFFFFF" d="M43.806,15.443L29.557,1.194c-0.77-0.769-1.795-1.193-2.889-1.193s-2.119,0.423-2.889,1.192L1.193,23.779
				C0.424,24.549,0,25.574,0,26.668s0.424,2.119,1.193,2.889l1.757,1.758c0,0,0,0,0,0c0,0,0,0,0,0l11.809,11.81h-1.635
				c-0.518,0-0.937,0.419-0.937,0.938c0,0.518,0.419,0.938,0.937,0.938h5.202c0.001,0,0.002,0,0.004,0c0.001,0,0.002,0,0.003,0
				h13.54c0.518,0,0.938-0.42,0.938-0.938s-0.42-0.938-0.938-0.938h-9.973L43.806,21.22C45.398,19.627,45.398,17.036,43.806,15.443z
				 M42.479,19.894L19.893,42.48c-0.414,0.414-0.968,0.643-1.559,0.644h-0.007c-0.591-0.001-1.145-0.229-1.559-0.644L4.939,30.651
				L26.63,8.96c0.366-0.366,0.366-0.96,0-1.326c-0.366-0.366-0.96-0.366-1.325,0L3.613,29.326L2.519,28.23
				c-0.415-0.414-0.644-0.969-0.644-1.563c0-0.592,0.229-1.147,0.644-1.563L25.105,2.52c0.414-0.415,0.969-0.644,1.563-0.644
				c0.592,0,1.147,0.229,1.563,0.644l5.071,5.071L11.611,29.282c-0.366,0.366-0.366,0.96,0,1.326
				c0.183,0.183,0.423,0.274,0.663,0.274c0.24,0,0.48-0.092,0.663-0.275l21.69-21.69l7.853,7.852
				C43.342,17.63,43.342,19.032,42.479,19.894z"/>
			<path fill="#FFFFFF" d="M23.098,27.076c-0.366-0.366-0.959-0.366-1.326,0l-7.377,7.377c-0.366,0.365-0.366,0.959,0,1.326
				c0.183,0.183,0.423,0.273,0.663,0.273c0.24,0,0.48-0.091,0.663-0.273l7.377-7.377C23.464,28.035,23.464,27.441,23.098,27.076z"/>
			<path fill="#FFFFFF" d="M20.072,34.078l-3.026,3.026c-0.366,0.366-0.366,0.96,0,1.325c0.183,0.184,0.423,0.275,0.663,0.275
				c0.24,0,0.479-0.092,0.663-0.275l3.026-3.025c0.366-0.365,0.366-0.959,0-1.326C21.032,33.713,20.438,33.713,20.072,34.078z"/>
			<path fill="#FFFFFF" d="M22.856,31.295l-0.398,0.397c-0.366,0.366-0.366,0.96,0,1.325c0.183,0.184,0.423,0.275,0.663,0.275
				c0.24,0,0.48-0.092,0.663-0.275l0.397-0.396c0.366-0.367,0.366-0.96,0-1.326C23.816,30.929,23.223,30.929,22.856,31.295z"/>
			<path fill="#FFFFFF" d="M35.777,14.396c-0.176-0.176-0.414-0.275-0.662-0.275c-0.249,0-0.487,0.099-0.663,0.275l-3.978,3.977
				c-0.176,0.176-0.274,0.415-0.274,0.663s0.099,0.487,0.274,0.663l2.652,2.651c0.183,0.183,0.422,0.274,0.662,0.274
				s0.48-0.092,0.663-0.274l3.978-3.978c0.365-0.366,0.365-0.959,0-1.326L35.777,14.396z M33.789,20.362l-1.326-1.326l2.652-2.651
				l1.326,1.326L33.789,20.362z"/>
			<path fill="#FFFFFF" d="M28.154,7.048c0.24,0,0.48-0.092,0.664-0.275l0.396-0.398c0.367-0.366,0.367-0.96,0-1.326
				c-0.365-0.366-0.959-0.366-1.325,0l-0.397,0.398c-0.366,0.366-0.366,0.96,0,1.326C27.676,6.956,27.915,7.048,28.154,7.048z"/>
			<path fill="#FFFFFF" d="M9.423,31.47l-0.398,0.397c-0.366,0.366-0.366,0.96,0,1.326c0.183,0.184,0.423,0.274,0.663,0.274
				s0.479-0.091,0.663-0.274l0.398-0.397c0.366-0.366,0.366-0.96,0-1.326S9.79,31.104,9.423,31.47z"/>
		</g>
	</g>
</g>
</svg>
