<?xml version="1.0" encoding="utf-8"?>
<!-- Generator: Adobe Illustrator 16.0.0, SVG Export Plug-In . SVG Version: 6.00 Build 0)  -->
<!DOCTYPE svg PUBLIC "-//W3C//DTD SVG 1.1//EN" "http://www.w3.org/Graphics/SVG/1.1/DTD/svg11.dtd">
<svg version="1.1" id="Layer_1" xmlns="http://www.w3.org/2000/svg" xmlns:xlink="http://www.w3.org/1999/xlink" x="0px" y="0px"
	 width="30px" height="30px" viewBox="0 0 30 30" enable-background="new 0 0 30 30" xml:space="preserve">
<g>
	<g>
		<path fill="#FFFFFF" d="M29.392,19.883c-0.335-0.334-0.743-0.502-1.222-0.502h-8.336l-2.443,2.441
			c-0.694,0.672-1.509,1.006-2.443,1.006c-0.934,0-1.749-0.332-2.443-1.006l-2.426-2.441H1.725c-0.479,0-0.886,0.168-1.222,0.502
			C0.168,20.219,0,20.627,0,21.105v5.75c0,0.477,0.167,0.885,0.503,1.221c0.335,0.334,0.743,0.502,1.222,0.502H28.17
			c0.479,0,0.887-0.168,1.222-0.502c0.335-0.336,0.503-0.744,0.503-1.221v-5.75C29.895,20.627,29.727,20.219,29.392,19.883z
			 M22.655,25.938c-0.229,0.229-0.498,0.342-0.81,0.342s-0.58-0.113-0.809-0.342c-0.227-0.229-0.341-0.496-0.341-0.807
			c0-0.313,0.114-0.582,0.341-0.811c0.229-0.227,0.497-0.34,0.809-0.34s0.581,0.113,0.81,0.34c0.227,0.229,0.341,0.498,0.341,0.811
			C22.996,25.441,22.882,25.709,22.655,25.938z M27.254,25.938c-0.229,0.229-0.498,0.342-0.809,0.342
			c-0.312,0-0.581-0.113-0.809-0.342s-0.341-0.496-0.341-0.807c0-0.313,0.113-0.582,0.341-0.811c0.228-0.227,0.497-0.34,0.809-0.34
			c0.311,0,0.58,0.113,0.809,0.34c0.228,0.229,0.342,0.498,0.342,0.811C27.596,25.441,27.481,25.709,27.254,25.938z"/>
		<path fill="#FFFFFF" d="M14.139,20.189c0.215,0.229,0.485,0.34,0.808,0.34s0.593-0.111,0.809-0.34l8.049-8.049
			c0.371-0.347,0.454-0.766,0.251-1.257c-0.203-0.467-0.557-0.701-1.06-0.701h-4.6V2.133c0-0.311-0.113-0.58-0.341-0.808
			c-0.228-0.228-0.497-0.341-0.809-0.341h-4.599c-0.312,0-0.581,0.114-0.809,0.341c-0.228,0.228-0.341,0.497-0.341,0.808v8.049
			H6.899c-0.503,0-0.856,0.234-1.06,0.701c-0.204,0.491-0.12,0.91,0.252,1.257L14.139,20.189z"/>
	</g>
</g>
</svg>
