<?xml version="1.0" encoding="utf-8"?>
<!-- Generator: Adobe Illustrator 16.0.0, SVG Export Plug-In . SVG Version: 6.00 Build 0)  -->
<!DOCTYPE svg PUBLIC "-//W3C//DTD SVG 1.1//EN" "http://www.w3.org/Graphics/SVG/1.1/DTD/svg11.dtd">
<svg version="1.1" id="Layer_1" xmlns="http://www.w3.org/2000/svg" xmlns:xlink="http://www.w3.org/1999/xlink" x="0px" y="0px"
	 width="20px" height="21px" viewBox="0 0 20 21" enable-background="new 0 0 20 21" xml:space="preserve">
<path fill="#FFFFFF" d="M17.188,0.754l-16.25,9.371c-1.344,0.777-1.215,2.766,0.223,3.355l4.465,1.848v3.297
	c0,1.813,2.313,2.559,3.383,1.117l1.711-2.309l4.371,1.805c0.23,0.094,0.473,0.141,0.715,0.141c0.32,0,0.637-0.082,0.922-0.242
	c0.5-0.281,0.844-0.781,0.934-1.348l2.32-15.125C20.219,1.098,18.539-0.023,17.188,0.754z M7.5,18.625v-2.523l1.43,0.59L7.5,18.625z
	 M15.805,17.504l-6.008-2.48l5.477-7.902c0.418-0.605-0.371-1.309-0.926-0.828l-8.262,7.199L1.875,11.75l16.25-9.375L15.805,17.504z
	"/>
</svg>
