<?xml version="1.0" encoding="utf-8"?>
<!-- Generator: Adobe Illustrator 16.0.0, SVG Export Plug-In . SVG Version: 6.00 Build 0)  -->
<!DOCTYPE svg PUBLIC "-//W3C//DTD SVG 1.1//EN" "http://www.w3.org/Graphics/SVG/1.1/DTD/svg11.dtd">
<svg version="1.1" id="Layer_1" xmlns="http://www.w3.org/2000/svg" xmlns:xlink="http://www.w3.org/1999/xlink" x="0px" y="0px"
	 width="21px" height="20px" viewBox="0 0 21 20" enable-background="new 0 0 21 20" xml:space="preserve">
<path fill="#FFFFFF" d="M3,5.001H1.75c-0.69,0-1.25,0.56-1.25,1.25v12.5c0,0.69,0.56,1.25,1.25,1.25H3c0.69,0,1.25-0.56,1.25-1.25
	V6.25C4.25,5.561,3.69,5.001,3,5.001z M19.249,6.25V3.019c0-0.332-0.133-0.649-0.367-0.884l-1.766-1.768
	c-0.234-0.234-0.554-0.366-0.886-0.366H6.75c-0.69,0-1.25,0.56-1.25,1.25V18.75C5.5,19.44,6.06,20,6.75,20h12.499
	c0.69,0,1.25-0.56,1.25-1.25V7.5C20.499,6.811,19.939,6.25,19.249,6.25z M11.75,16.875c0,0.345-0.28,0.625-0.625,0.625h-1.25
	c-0.346,0-0.625-0.28-0.625-0.625v-1.25C9.25,15.28,9.529,15,9.875,15h1.25c0.345,0,0.625,0.28,0.625,0.625V16.875z M11.75,11.875
	c0,0.345-0.28,0.625-0.625,0.625h-1.25c-0.346,0-0.625-0.28-0.625-0.625v-1.25C9.25,10.28,9.529,10,9.875,10h1.25
	c0.345,0,0.625,0.28,0.625,0.625V11.875z M16.749,16.875c0,0.345-0.28,0.625-0.625,0.625h-1.25c-0.345,0-0.625-0.28-0.625-0.625
	v-1.25c0-0.345,0.28-0.625,0.625-0.625h1.25c0.345,0,0.625,0.28,0.625,0.625V16.875z M16.749,11.875c0,0.345-0.28,0.625-0.625,0.625
	h-1.25c-0.345,0-0.625-0.28-0.625-0.625v-1.25c0-0.345,0.28-0.625,0.625-0.625h1.25c0.345,0,0.625,0.28,0.625,0.625V11.875z
	 M17.374,7.5H7.375V1.876h8.124v1.25c0,0.345,0.28,0.625,0.625,0.625h1.25V7.5z"/>
</svg>
