<?xml version="1.0" encoding="utf-8"?>
<!-- Generator: Adobe Illustrator 16.0.0, SVG Export Plug-In . SVG Version: 6.00 Build 0)  -->
<!DOCTYPE svg PUBLIC "-//W3C//DTD SVG 1.1//EN" "http://www.w3.org/Graphics/SVG/1.1/DTD/svg11.dtd">
<svg version="1.1" id="Layer_1" xmlns="http://www.w3.org/2000/svg" xmlns:xlink="http://www.w3.org/1999/xlink" x="0px" y="0px"
	 width="37px" height="45px" viewBox="0 0 37 45" enable-background="new 0 0 37 45" xml:space="preserve">
<g>
	<g>
		<path fill="#FFFFFF" d="M36.664,11.154l-10.78-10.78c-0.17-0.17-0.401-0.266-0.642-0.266H4.596c-2.438,0-4.421,1.983-4.421,4.422
			v35.738c0,2.439,1.983,4.424,4.422,4.424H32.51c2.438,0,4.422-1.983,4.422-4.424v-28.47
			C36.932,11.556,36.834,11.325,36.664,11.154z M26.15,3.214l7.674,7.674h-5.07c-0.693,0-1.35-0.271-1.841-0.762
			c-0.491-0.492-0.763-1.145-0.763-1.84V3.214z M35.111,40.268c0,1.438-1.166,2.604-2.603,2.604H4.596
			c-1.434,0-2.602-1.167-2.602-2.604V4.529c0-1.435,1.168-2.602,2.602-2.602H24.33v6.358c0,1.181,0.462,2.292,1.296,3.126
			c0.835,0.835,1.946,1.295,3.128,1.295h6.357V40.268L35.111,40.268z"/>
	</g>
</g>
<g>
	<g>
		<path fill="#FFFFFF" d="M9.015,26.625H8.604c-0.506,0-0.916,0.41-0.916,0.916c0,0.507,0.41,0.917,0.916,0.917h0.411
			c0.506,0,0.916-0.41,0.916-0.917C9.931,27.035,9.521,26.625,9.015,26.625z"/>
	</g>
</g>
<g>
	<g>
		<path fill="#FFFFFF" d="M28.396,26.625H11.979c-0.506,0-0.917,0.41-0.917,0.916c0,0.507,0.411,0.917,0.917,0.917h16.417
			c0.506,0,0.916-0.41,0.916-0.917C29.313,27.035,28.9,26.625,28.396,26.625z"/>
	</g>
</g>
<g>
	<g>
		<path fill="#FFFFFF" d="M9.015,22.44H8.604c-0.506,0-0.916,0.41-0.916,0.916c0,0.506,0.41,0.916,0.916,0.916h0.411
			c0.506,0,0.916-0.41,0.916-0.916C9.931,22.85,9.521,22.44,9.015,22.44z"/>
	</g>
</g>
<g>
	<g>
		<path fill="#FFFFFF" d="M28.396,22.44H11.979c-0.506,0-0.917,0.41-0.917,0.916c0,0.506,0.411,0.916,0.917,0.916h16.417
			c0.506,0,0.916-0.41,0.916-0.916C29.313,22.85,28.9,22.44,28.396,22.44z"/>
	</g>
</g>
<g>
	<g>
		<path fill="#FFFFFF" d="M9.015,18.255H8.604c-0.506,0-0.916,0.41-0.916,0.916s0.41,0.917,0.916,0.917h0.411
			c0.506,0,0.916-0.411,0.916-0.917S9.521,18.255,9.015,18.255z"/>
	</g>
</g>
<g>
	<g>
		<path fill="#FFFFFF" d="M28.396,18.255H11.979c-0.506,0-0.917,0.41-0.917,0.916s0.411,0.917,0.917,0.917h16.417
			c0.506,0,0.916-0.411,0.916-0.917S28.9,18.255,28.396,18.255z"/>
	</g>
</g>
</svg>
