<?xml version="1.0" encoding="utf-8"?>
<!-- Generator: Adobe Illustrator 16.0.0, SVG Export Plug-In . SVG Version: 6.00 Build 0)  -->
<!DOCTYPE svg PUBLIC "-//W3C//DTD SVG 1.1//EN" "http://www.w3.org/Graphics/SVG/1.1/DTD/svg11.dtd">
<svg version="1.1" id="Layer_1" xmlns="http://www.w3.org/2000/svg" xmlns:xlink="http://www.w3.org/1999/xlink" x="0px" y="0px"
	 width="45px" height="33px" viewBox="0 0 45 33" enable-background="new 0 0 45 33" xml:space="preserve">
<g>
	<g>
		<path fill="#FFFFFF" d="M43.286,26.174h-0.049v-3.898c0-9.728-6.796-18.157-16.232-20.247c-0.05-0.503-0.265-0.97-0.623-1.341
			c-0.431-0.445-1.008-0.69-1.627-0.69h-4.51c-0.62,0-1.197,0.245-1.627,0.69c-0.358,0.371-0.573,0.837-0.624,1.341
			C8.558,4.118,1.763,12.547,1.763,22.275v3.898H1.714c-0.822,0-1.491,0.666-1.491,1.49v0.98c0,0.65,0.411,1.221,1.022,1.422
			c5.797,1.895,13.346,2.938,21.255,2.938c7.908,0,15.458-1.043,21.254-2.938c0.612-0.201,1.023-0.771,1.023-1.422v-0.98
			C44.777,26.84,44.107,26.174,43.286,26.174z M19.656,1.69c0.156-0.161,0.365-0.25,0.589-0.25h4.51c0.224,0,0.434,0.088,0.59,0.25
			c0.155,0.161,0.235,0.373,0.228,0.596L24.91,21.531c-0.016,0.445-0.375,0.793-0.817,0.793h-3.185
			c-0.442,0-0.801-0.348-0.817-0.793L19.427,2.287C19.419,2.063,19.5,1.852,19.656,1.69z M43.334,28.645
			c0,0.021-0.009,0.043-0.027,0.049c-5.657,1.85-13.046,2.867-20.807,2.867S7.35,30.543,1.693,28.693
			c-0.019-0.006-0.027-0.027-0.027-0.049v-0.98c0-0.027,0.021-0.049,0.048-0.049h27.714c0.397,0,0.721-0.324,0.721-0.721
			c0-0.398-0.323-0.721-0.721-0.721H3.206v-3.898c0-7.255,4.062-13.732,10.195-17.02l1.565,10.963c0.052,0.36,0.361,0.62,0.715,0.62
			c0.033,0,0.067-0.002,0.103-0.007c0.394-0.057,0.668-0.422,0.612-0.817L14.765,4.592c1.039-0.455,2.128-0.821,3.26-1.089
			l0.623,18.079c0.042,1.225,1.035,2.184,2.261,2.184h3.184c1.224,0,2.218-0.959,2.26-2.184l0.622-18.079
			c1.132,0.268,2.222,0.634,3.262,1.089l-1.632,11.422c-0.057,0.395,0.218,0.761,0.612,0.817c0.034,0.005,0.067,0.007,0.103,0.007
			c0.354,0,0.662-0.26,0.714-0.62l1.567-10.963c6.132,3.287,10.194,9.765,10.194,17.02v3.898h-4.667
			c-0.398,0-0.724,0.322-0.724,0.721c0,0.396,0.325,0.721,0.724,0.721h6.158c0.026,0,0.049,0.021,0.049,0.049L43.334,28.645
			L43.334,28.645z"/>
	</g>
</g>
<g>
	<g>
		<path fill="#FFFFFF" d="M33.825,26.176h-1.54c-0.398,0-0.722,0.322-0.722,0.721c0,0.397,0.323,0.722,0.722,0.722h1.54
			c0.397,0,0.722-0.324,0.722-0.722C34.547,26.498,34.223,26.176,33.825,26.176z"/>
	</g>
</g>
<g>
	<g>
		<path fill="#FFFFFF" d="M16.833,20.636l-0.22-1.54c-0.057-0.396-0.422-0.67-0.816-0.611c-0.395,0.056-0.669,0.422-0.613,0.814
			l0.22,1.54c0.051,0.361,0.36,0.621,0.714,0.621c0.033,0,0.068-0.003,0.103-0.008C16.615,21.396,16.89,21.03,16.833,20.636z"/>
	</g>
</g>
<g>
	<g>
		<path fill="#FFFFFF" d="M28.76,18.484c-0.396-0.059-0.762,0.216-0.818,0.611l-0.22,1.54c-0.057,0.395,0.218,0.76,0.612,0.816
			c0.035,0.005,0.069,0.008,0.104,0.008c0.354,0,0.662-0.26,0.713-0.621l0.22-1.54C29.426,18.906,29.151,18.54,28.76,18.484z"/>
	</g>
</g>
</svg>
