<?xml version="1.0" encoding="utf-8"?>
<!-- Generator: Adobe Illustrator 16.0.0, SVG Export Plug-In . SVG Version: 6.00 Build 0)  -->
<!DOCTYPE svg PUBLIC "-//W3C//DTD SVG 1.1//EN" "http://www.w3.org/Graphics/SVG/1.1/DTD/svg11.dtd">
<svg version="1.1" id="Layer_1" xmlns="http://www.w3.org/2000/svg" xmlns:xlink="http://www.w3.org/1999/xlink" x="0px" y="0px"
	 width="25px" height="25px" viewBox="0 0 25 25" enable-background="new 0 0 25 25" xml:space="preserve">
<g>
	<g>
		<path fill="#606B72" d="M24.51,12.02L24.51,12.02c-0.27,0-0.488,0.219-0.488,0.488c-0.002,3.075-1.199,5.967-3.375,8.141
			c-2.176,2.177-5.068,3.375-8.146,3.375c-3.078,0-5.971-1.198-8.147-3.375c-2.176-2.176-3.375-5.069-3.375-8.146
			c0-3.078,1.199-5.971,3.375-8.147c3.492-3.492,8.813-4.373,13.241-2.191c0.241,0.119,0.534,0.02,0.653-0.222
			c0.119-0.242,0.02-0.535-0.222-0.654C13.223-1.079,7.451-0.124,3.663,3.664c-2.361,2.361-3.661,5.5-3.661,8.838
			c0,3.338,1.3,6.477,3.661,8.838C6.023,23.7,9.162,25,12.5,25c3.338,0,6.477-1.3,8.838-3.66c2.358-2.359,3.658-5.496,3.66-8.832
			C24.998,12.238,24.779,12.02,24.51,12.02z"/>
	</g>
</g>
<g>
	<g>
		<path fill="#606B72" d="M19.703,2.286l-0.014-0.009c-0.221-0.154-0.525-0.101-0.68,0.12c-0.154,0.221-0.101,0.525,0.121,0.68
			l0.011,0.008c0.085,0.06,0.183,0.089,0.28,0.089c0.153,0,0.305-0.072,0.4-0.208C19.977,2.745,19.924,2.44,19.703,2.286z"/>
	</g>
</g>
<g>
	<g>
		<path fill="#606B72" d="M22.061,12.01c-0.27,0-0.488,0.219-0.488,0.488v0.03c-0.002,0.27,0.217,0.489,0.486,0.49
			c0,0,0.001,0,0.002,0c0.269,0,0.486-0.218,0.488-0.486v-0.034C22.549,12.229,22.33,12.01,22.061,12.01z"/>
	</g>
</g>
<g>
	<g>
		<path fill="#606B72" d="M21.955,14.001c-0.264-0.056-0.521,0.114-0.578,0.378c-0.878,4.172-4.615,7.2-8.886,7.2
			c-5.007,0-9.081-4.073-9.081-9.081c0-3.243,1.709-6.188,4.442-7.809C7.821,4.894,7.923,5.104,8.119,5.201
			c0.069,0.034,0.143,0.051,0.216,0.051c0.18,0,0.353-0.1,0.438-0.272l0.541-1.094c0.119-0.242,0.02-0.535-0.222-0.654L7.998,2.69
			C7.756,2.571,7.463,2.67,7.344,2.912c-0.119,0.241-0.02,0.534,0.222,0.654L7.72,3.642c-3.24,1.743-5.285,5.122-5.285,8.856
			c0,5.546,4.511,10.057,10.057,10.057c2.321,0,4.586-0.809,6.377-2.279c1.767-1.449,2.997-3.473,3.465-5.695
			C22.389,14.315,22.22,14.057,21.955,14.001z"/>
	</g>
</g>
<g>
	<g>
		<path fill="#606B72" d="M12.5,10.939c-0.691,0-1.278,0.451-1.484,1.074H6.983c-0.27,0-0.488,0.219-0.488,0.488
			s0.218,0.488,0.488,0.488h4.033c0.155,0.469,0.526,0.84,0.996,0.995v5.331c0,0.27,0.219,0.488,0.488,0.488
			s0.488-0.219,0.488-0.488v-5.331c0.623-0.205,1.074-0.792,1.074-1.483C14.063,11.641,13.361,10.939,12.5,10.939z M12.5,13.088
			c-0.323,0-0.586-0.264-0.586-0.586c0-0.323,0.263-0.586,0.586-0.586s0.586,0.263,0.586,0.586
			C13.086,12.824,12.823,13.088,12.5,13.088z"/>
	</g>
</g>
</svg>
