<?xml version="1.0" encoding="utf-8"?>
<!-- Generator: Adobe Illustrator 16.0.0, SVG Export Plug-In . SVG Version: 6.00 Build 0)  -->
<!DOCTYPE svg PUBLIC "-//W3C//DTD SVG 1.1//EN" "http://www.w3.org/Graphics/SVG/1.1/DTD/svg11.dtd">
<svg version="1.1" id="Layer_1" xmlns="http://www.w3.org/2000/svg" xmlns:xlink="http://www.w3.org/1999/xlink" x="0px" y="0px"
	 width="22px" height="27px" viewBox="0 0 22 27" enable-background="new 0 0 22 27" xml:space="preserve">
<g>
	<g>
		<path fill="#FFFFFF" d="M10.994,0.026c-5.954,0-10.802,4.848-10.802,10.802c0,0.678,0.062,1.362,0.192,2.028
			c0.006,0.04,0.028,0.159,0.074,0.362c0.164,0.729,0.406,1.446,0.723,2.129c1.164,2.74,3.723,6.949,9.338,11.457
			c0.142,0.113,0.311,0.17,0.48,0.17s0.339-0.057,0.48-0.17c5.609-4.508,8.176-8.717,9.339-11.457
			c0.315-0.684,0.558-1.395,0.724-2.129c0.045-0.203,0.066-0.322,0.074-0.362c0.123-0.667,0.191-1.35,0.191-2.028
			C21.796,4.874,16.948,0.026,10.994,0.026z M20.101,12.591c0,0.011-0.005,0.022-0.005,0.033c-0.005,0.029-0.021,0.113-0.05,0.243
			c0,0.006,0,0.006,0,0.011c-0.143,0.632-0.35,1.248-0.627,1.843c-0.008,0.005-0.008,0.016-0.013,0.021
			c-1.056,2.504-3.372,6.323-8.412,10.487c-5.039-4.164-7.355-7.983-8.412-10.487c-0.005-0.005-0.005-0.016-0.011-0.021
			c-0.271-0.588-0.48-1.21-0.627-1.843c0-0.005,0-0.005,0-0.011c-0.034-0.13-0.045-0.214-0.051-0.243
			c0-0.011-0.006-0.022-0.006-0.039c-0.113-0.583-0.169-1.169-0.169-1.763c0-5.113,4.163-9.276,9.276-9.276
			c5.114,0,9.277,4.163,9.277,9.276C20.271,11.422,20.214,12.015,20.101,12.591z"/>
		<path fill="#FFFFFF" d="M10.994,4.088c-3.779,0-6.858,3.079-6.858,6.859c0,3.779,3.079,6.858,6.858,6.858
			c3.78,0,6.859-3.079,6.859-6.858C17.854,7.167,14.774,4.088,10.994,4.088z M10.994,16.279c-2.943,0-5.333-2.395-5.333-5.332
			c0-2.938,2.396-5.333,5.333-5.333s5.334,2.395,5.334,5.333C16.328,13.884,13.938,16.279,10.994,16.279z"/>
	</g>
</g>
</svg>
