<?xml version="1.0" encoding="utf-8"?>
<!-- Generator: Adobe Illustrator 16.0.0, SVG Export Plug-In . SVG Version: 6.00 Build 0)  -->
<!DOCTYPE svg PUBLIC "-//W3C//DTD SVG 1.1//EN" "http://www.w3.org/Graphics/SVG/1.1/DTD/svg11.dtd">
<svg version="1.1" id="Layer_1" xmlns="http://www.w3.org/2000/svg" xmlns:xlink="http://www.w3.org/1999/xlink" x="0px" y="0px"
	 width="11px" height="16px" viewBox="0 0 11 16" enable-background="new 0 0 11 16" xml:space="preserve">
<g>
	<path fill="#FFFFFF" d="M10.166,7.075l-6.701-6.69C3.218,0.124,2.91-0.006,2.54-0.006c-0.371,0-0.678,0.13-0.925,0.391L0.834,1.155
		C0.58,1.409,0.453,1.717,0.453,2.08c0,0.356,0.127,0.668,0.381,0.936L5.829,8l-4.995,4.996c-0.253,0.254-0.38,0.562-0.38,0.924
		c0,0.357,0.127,0.669,0.38,0.937l0.781,0.77c0.253,0.254,0.562,0.381,0.925,0.381c0.363,0,0.671-0.127,0.925-0.381l6.701-6.69
		c0.254-0.267,0.38-0.58,0.38-0.936C10.546,7.637,10.42,7.329,10.166,7.075z"/>
</g>
</svg>
