<?xml version="1.0" encoding="utf-8"?>
<!-- Generator: Adobe Illustrator 16.0.0, SVG Export Plug-In . SVG Version: 6.00 Build 0)  -->
<!DOCTYPE svg PUBLIC "-//W3C//DTD SVG 1.1//EN" "http://www.w3.org/Graphics/SVG/1.1/DTD/svg11.dtd">
<svg version="1.1" id="Layer_1" xmlns="http://www.w3.org/2000/svg" xmlns:xlink="http://www.w3.org/1999/xlink" x="0px" y="0px"
	 width="30px" height="30px" viewBox="0 0 30 30" enable-background="new 0 0 30 30" xml:space="preserve">
<g>
	<g id="Search_1_">
		<g>
			<path fill="#606A71" d="M29.237,26.837l-6.086-6.087c1.714-2.182,2.745-4.925,2.745-7.915C25.896,5.747,20.148,0,13.061,0
				C5.972,0,0.226,5.747,0.226,12.835c0,7.087,5.747,12.835,12.835,12.835c2.774,0,5.336-0.889,7.436-2.387l6.146,6.146
				c0.716,0.717,1.877,0.717,2.593,0C29.954,28.716,29.954,27.554,29.237,26.837z M20.187,19.291
				c-0.244,0.089-0.478,0.219-0.673,0.416c-0.182,0.181-0.315,0.391-0.404,0.612c-1.653,1.337-3.756,2.143-6.048,2.143
				c-5.317,0-9.626-4.311-9.626-9.626c0-5.317,4.31-9.626,9.626-9.626c5.316,0,9.626,4.31,9.626,9.626
				C22.688,15.322,21.735,17.581,20.187,19.291z"/>
		</g>
	</g>
</g>
</svg>
