<?xml version="1.0" encoding="utf-8"?>
<!-- Generator: Adobe Illustrator 16.0.0, SVG Export Plug-In . SVG Version: 6.00 Build 0)  -->
<!DOCTYPE svg PUBLIC "-//W3C//DTD SVG 1.1//EN" "http://www.w3.org/Graphics/SVG/1.1/DTD/svg11.dtd">
<svg version="1.1" id="Layer_1" xmlns="http://www.w3.org/2000/svg" xmlns:xlink="http://www.w3.org/1999/xlink" x="0px" y="0px"
	 width="35px" height="20px" viewBox="0 0 35 20" enable-background="new 0 0 35 20" xml:space="preserve">
<g>
	<g>
		<path fill="#606A71" d="M12.962,13.986c-1.615,0-2.92,1.33-2.92,2.97c0,1.635,1.305,2.966,2.92,2.966
			c1.615,0,2.919-1.331,2.919-2.966C15.881,15.316,14.577,13.986,12.962,13.986z M12.962,18.438c-0.808,0-1.46-0.666-1.46-1.481
			c0-0.819,0.652-1.482,1.46-1.482c0.807,0,1.46,0.663,1.46,1.482C14.422,17.771,13.769,18.438,12.962,18.438z M34.982,11.792v3.167
			c0,0.79-0.631,1.43-1.408,1.43h-1.507c-0.272-1.897-1.883-3.355-3.826-3.355c-1.938,0-3.549,1.458-3.821,3.355h-7.636
			c-0.272-1.897-1.882-3.355-3.821-3.355c-1.938,0-3.548,1.458-3.821,3.355H7.254c-0.778,0-1.408-0.64-1.408-1.43v-3.167H34.982
			L34.982,11.792z M28.245,13.986c-1.615,0-2.924,1.33-2.924,2.97c0,1.635,1.309,2.966,2.924,2.966c1.609,0,2.92-1.331,2.92-2.966
			C31.165,15.316,29.854,13.986,28.245,13.986z M28.245,18.438c-0.808,0-1.46-0.666-1.46-1.481c0-0.819,0.652-1.482,1.46-1.482
			c0.803,0,1.46,0.663,1.46,1.482C29.705,17.771,29.048,18.438,28.245,18.438z M34.428,8.605l-5.534-5.559
			c-0.353-0.353-0.826-0.553-1.319-0.553h-2.793V1.43c0-0.791-0.63-1.43-1.408-1.43H7.253C6.479,0,5.845,0.639,5.845,1.43v0.225
			L0.131,2.323l10.126,1.339L0,4.697l10.221,1.476L0,7.073l5.846,1.12l0,2.811h29.136V9.958C34.981,9.448,34.779,8.962,34.428,8.605
			z M32.015,8.791h-5.355c-0.122,0-0.221-0.101-0.221-0.225v-4.2c0-0.124,0.099-0.224,0.221-0.224h1.018
			c0.057,0,0.113,0.024,0.155,0.062l4.333,4.2C32.31,8.542,32.212,8.791,32.015,8.791z"/>
	</g>
</g>
</svg>
