<?xml version="1.0" encoding="utf-8"?>
<!-- Generator: Adobe Illustrator 16.0.0, SVG Export Plug-In . SVG Version: 6.00 Build 0)  -->
<!DOCTYPE svg PUBLIC "-//W3C//DTD SVG 1.1//EN" "http://www.w3.org/Graphics/SVG/1.1/DTD/svg11.dtd">
<svg version="1.1" id="Layer_1" xmlns="http://www.w3.org/2000/svg" xmlns:xlink="http://www.w3.org/1999/xlink" x="0px" y="0px"
	 width="30px" height="39.959px" viewBox="0 0 30 39.959" enable-background="new 0 0 30 39.959" xml:space="preserve">
<path fill="#FFFFFF" d="M28.862,7.647L22.315,1.1C21.614,0.398,20.662,0,19.671,0H3.745C1.678,0.008,0,1.686,0,3.753v32.46
	c0,2.068,1.678,3.746,3.745,3.746h22.473c2.067,0,3.745-1.678,3.745-3.746V10.3C29.963,9.309,29.565,8.349,28.862,7.647z
	 M25.913,9.996h-5.938V4.058L25.913,9.996z M3.745,36.213V3.753h12.484v8.115c0,1.038,0.835,1.873,1.873,1.873h8.115v22.472H3.745z
	 M23.269,25c-0.953-0.936-3.668-0.679-5.025-0.507c-1.343-0.819-2.239-1.951-2.872-3.613c0.305-1.256,0.788-3.168,0.421-4.37
	c-0.327-2.044-2.949-1.841-3.324-0.46c-0.343,1.256-0.031,3.004,0.546,5.236c-0.78,1.864-1.943,4.369-2.762,5.804
	c-1.561,0.804-3.667,2.046-3.979,3.605c-0.257,1.232,2.028,4.308,5.938-2.435c1.748-0.577,3.651-1.288,5.337-1.568
	c1.475,0.796,3.199,1.326,4.354,1.326C23.893,28.02,24.087,25.82,23.269,25z M7.811,31.071c0.398-1.069,1.912-2.302,2.373-2.73
	C8.7,30.704,7.811,31.126,7.811,31.071z M14.178,16.199c0.578,0,0.523,2.504,0.14,3.184C13.975,18.298,13.982,16.199,14.178,16.199z
	 M12.274,26.858c0.756-1.32,1.405-2.887,1.927-4.269c0.648,1.178,1.475,2.123,2.35,2.77C14.927,25.695,13.514,26.382,12.274,26.858z
	 M22.542,26.467c0,0-0.39,0.469-2.91-0.608C22.37,25.656,22.823,26.28,22.542,26.467z"/>
</svg>
