<?xml version="1.0" encoding="utf-8"?>
<!-- Generator: Adobe Illustrator 16.0.0, SVG Export Plug-In . SVG Version: 6.00 Build 0)  -->
<!DOCTYPE svg PUBLIC "-//W3C//DTD SVG 1.1//EN" "http://www.w3.org/Graphics/SVG/1.1/DTD/svg11.dtd">
<svg version="1.1" id="Layer_1" xmlns="http://www.w3.org/2000/svg" xmlns:xlink="http://www.w3.org/1999/xlink" x="0px" y="0px"
	 width="24px" height="24px" viewBox="0 0 24 24" enable-background="new 0 0 24 24" xml:space="preserve">
<g>
	<path fill="#FFFFFF" d="M4.852,15.976c2.37,2.834,5.224,5.064,8.481,6.644c1.24,0.588,2.897,1.283,4.746,1.403
		c0.114,0.007,0.224,0.011,0.339,0.011c1.24,0,2.235-0.429,3.047-1.31c0.006-0.004,0.015-0.015,0.021-0.024
		c0.287-0.35,0.616-0.663,0.959-0.995c0.235-0.225,0.475-0.459,0.703-0.698c1.06-1.105,1.06-2.51-0.009-3.581l-2.994-2.993
		c-0.507-0.527-1.116-0.806-1.753-0.806s-1.251,0.278-1.773,0.802l-1.781,1.782c-0.164-0.095-0.336-0.18-0.493-0.259
		c-0.2-0.101-0.385-0.193-0.55-0.299c-1.622-1.03-3.096-2.375-4.506-4.104c-0.712-0.9-1.19-1.657-1.524-2.43
		c0.468-0.423,0.907-0.866,1.33-1.299C9.244,7.664,9.399,7.51,9.553,7.355c0.538-0.538,0.827-1.16,0.827-1.793
		c0-0.632-0.284-1.254-0.827-1.793L8.069,2.286C7.894,2.111,7.73,1.942,7.561,1.768C7.232,1.429,6.889,1.081,6.55,0.767
		C6.038,0.264,5.435,0,4.797,0C4.165,0,3.558,0.264,3.024,0.772L1.162,2.634c-0.678,0.677-1.061,1.5-1.141,2.45
		c-0.095,1.19,0.125,2.456,0.692,3.984C1.585,11.435,2.899,13.63,4.852,15.976z M1.236,5.189c0.06-0.663,0.313-1.215,0.792-1.693
		L3.88,1.644C4.17,1.365,4.488,1.22,4.797,1.22c0.304,0,0.613,0.145,0.897,0.434C6.027,1.962,6.34,2.286,6.679,2.629
		c0.169,0.175,0.344,0.349,0.518,0.528l1.484,1.484C8.99,4.95,9.149,5.264,9.149,5.572c0,0.309-0.159,0.623-0.468,0.932
		C8.527,6.658,8.373,6.818,8.219,6.972C7.755,7.44,7.322,7.883,6.843,8.307c-0.009,0.01-0.014,0.015-0.024,0.025
		C6.406,8.745,6.47,9.139,6.57,9.437c0.005,0.015,0.01,0.025,0.015,0.04c0.383,0.921,0.916,1.798,1.748,2.844
		c1.494,1.841,3.068,3.271,4.802,4.372c0.213,0.14,0.442,0.247,0.656,0.358c0.199,0.1,0.383,0.194,0.547,0.3
		c0.021,0.009,0.036,0.019,0.056,0.028c0.164,0.085,0.325,0.124,0.485,0.124c0.396,0,0.656-0.253,0.739-0.338l1.862-1.863
		c0.291-0.288,0.605-0.441,0.912-0.441c0.379,0,0.687,0.233,0.881,0.441l3.004,2.999c0.598,0.598,0.594,1.245-0.016,1.877
		c-0.208,0.225-0.429,0.438-0.662,0.663c-0.348,0.338-0.711,0.687-1.039,1.08c-0.574,0.618-1.258,0.906-2.139,0.906
		c-0.083,0-0.173-0.004-0.257-0.01c-1.635-0.104-3.152-0.741-4.295-1.285c-3.097-1.498-5.816-3.625-8.072-6.324
		C3.94,12.973,2.69,10.891,1.864,8.661C1.351,7.291,1.157,6.19,1.236,5.189z"/>
</g>
</svg>
