<?xml version="1.0" encoding="utf-8"?>
<!-- Generator: Adobe Illustrator 16.0.0, SVG Export Plug-In . SVG Version: 6.00 Build 0)  -->
<!DOCTYPE svg PUBLIC "-//W3C//DTD SVG 1.1//EN" "http://www.w3.org/Graphics/SVG/1.1/DTD/svg11.dtd">
<svg version="1.1" id="Layer_1" xmlns="http://www.w3.org/2000/svg" xmlns:xlink="http://www.w3.org/1999/xlink" x="0px" y="0px"
	 width="31px" height="31px" viewBox="0 0 31 31" enable-background="new 0 0 31 31" xml:space="preserve">
<g>
	<path fill="#FFFFFF" d="M18.161,15.431L30.298,3.294c0.754-0.753,0.754-1.976,0-2.729s-1.976-0.753-2.729,0L15.432,12.702
		L3.294,0.565c-0.754-0.753-1.975-0.753-2.729,0s-0.754,1.976,0,2.729l12.137,12.137L0.565,27.568c-0.754,0.753-0.754,1.975,0,2.729
		c0.377,0.376,0.872,0.563,1.364,0.563c0.494,0,0.988-0.188,1.365-0.565L15.432,18.16l12.137,12.136
		c0.377,0.378,0.871,0.565,1.364,0.565s0.987-0.188,1.365-0.565c0.754-0.753,0.754-1.975,0-2.728L18.161,15.431z"/>
</g>
</svg>
