<?xml version="1.0" encoding="utf-8"?>
<!-- Generator: Adobe Illustrator 16.0.0, SVG Export Plug-In . SVG Version: 6.00 Build 0)  -->
<!DOCTYPE svg PUBLIC "-//W3C//DTD SVG 1.1//EN" "http://www.w3.org/Graphics/SVG/1.1/DTD/svg11.dtd">
<svg version="1.1" id="Layer_1" xmlns="http://www.w3.org/2000/svg" xmlns:xlink="http://www.w3.org/1999/xlink" x="0px" y="0px"
	 width="31px" height="31px" viewBox="0 0 31 31" enable-background="new 0 0 31 31" xml:space="preserve">
<path fill="#64BD61" d="M12.649,0.156c6.976,0,12.651,5.676,12.651,12.65c0,3.069-1.099,5.887-2.924,8.078l8.109,8.055
	c0.473,0.469,0.475,1.232,0.007,1.703C30.257,30.881,29.947,31,29.638,31c-0.307,0-0.614-0.117-0.849-0.352l-8.121-8.064
	c-2.184,1.795-4.978,2.873-8.019,2.873c-2.169,0-4.311-0.559-6.193-1.617c-0.579-0.326-0.784-1.061-0.458-1.641
	c0.326-0.578,1.062-0.785,1.642-0.459c1.521,0.855,3.255,1.309,5.01,1.309c5.647,0,10.242-4.596,10.242-10.242
	s-4.595-10.24-10.242-10.24C7.004,2.566,2.41,7.16,2.41,12.807c0,1.779,0.463,3.531,1.337,5.064c0.33,0.578,0.129,1.316-0.448,1.645
	c-0.577,0.33-1.313,0.129-1.644-0.447C0.573,17.17,0,15.004,0,12.807C0,5.832,5.676,0.156,12.649,0.156z M4.835,11.916
	c0.404-0.508,1.347-1.696,2.662-2.744c1.685-1.346,3.419-2.027,5.152-2.027c1.736,0,3.469,0.682,5.154,2.027
	c1.314,1.048,2.26,2.236,2.663,2.744c0.09,0.113,0.235,0.318,0.277,0.379c0.292,0.416,0.292,0.97,0,1.385
	c-0.042,0.062-0.188,0.267-0.277,0.38c-0.403,0.507-1.349,1.696-2.663,2.743c-1.686,1.348-3.418,2.029-5.154,2.029
	c-1.733,0-3.468-0.682-5.152-2.029c-1.315-1.047-2.258-2.236-2.662-2.743c-0.091-0.113-0.237-0.319-0.279-0.38
	c-0.29-0.415-0.29-0.969,0-1.385C4.6,12.234,4.744,12.029,4.835,11.916z M12.649,16.422c1.79,0,3.666-1.155,5.582-3.435
	c-1.916-2.279-3.792-3.434-5.582-3.434c-1.787,0-3.664,1.154-5.58,3.434C8.985,15.267,10.862,16.422,12.649,16.422z M10.301,12.987
	c0,1.265,1.024,2.29,2.289,2.29s2.289-1.025,2.289-2.29s-1.024-2.289-2.289-2.289S10.301,11.723,10.301,12.987z"/>
</svg>
