<?xml version="1.0" encoding="utf-8"?>
<!-- Generator: Adobe Illustrator 16.0.0, SVG Export Plug-In . SVG Version: 6.00 Build 0)  -->
<!DOCTYPE svg PUBLIC "-//W3C//DTD SVG 1.1//EN" "http://www.w3.org/Graphics/SVG/1.1/DTD/svg11.dtd">
<svg version="1.1" id="Layer_1" xmlns="http://www.w3.org/2000/svg" xmlns:xlink="http://www.w3.org/1999/xlink" x="0px" y="0px"
	 width="40px" height="40px" viewBox="0 0 40 40" enable-background="new 0 0 40 40" xml:space="preserve">
<g>
	<g id="move_x5F_horizontal_x5F_alt1">
		<g>
			<polygon fill="#64BD61" points="12.521,8.48 15.015,10.973 7.536,10.973 7.536,15.959 0.058,8.48 7.536,1.002 7.536,5.987 
				15.015,5.987 			"/>
			<polygon fill="#64BD61" points="27.4,8.48 24.985,5.987 32.464,5.987 32.464,1.002 39.942,8.48 32.464,15.959 32.464,10.973 
				24.985,10.973 			"/>
		</g>
	</g>
</g>
<g>
	<g>
		<path fill="#606A71" d="M32.287,18.466c-0.515,0-0.997,0.14-1.41,0.384c-0.156-1.39-1.341-2.474-2.77-2.474
			c-0.682,0-1.305,0.247-1.791,0.656c-0.487-0.81-1.376-1.353-2.388-1.353c-0.507,0-0.982,0.136-1.391,0.375v-7.34
			c0-1.537-1.254-2.786-2.792-2.786c-1.536,0-2.786,1.249-2.786,2.786v18.643c0,0.35-0.231,0.529-0.33,0.591
			c-0.101,0.063-0.367,0.188-0.678,0.031l-4.474-2.235c-0.407-0.206-0.864-0.315-1.32-0.315c-1.626,0-2.951,1.328-2.951,2.952v0.534
			c0,0.19,0.081,0.377,0.221,0.51l8.039,7.502c1.684,1.569,3.878,2.435,6.177,2.435h4.37c4.994,0,9.06-4.063,9.06-9.053v-9.057
			C35.075,19.716,33.825,18.466,32.287,18.466z"/>
	</g>
</g>
</svg>
