<?xml version="1.0" encoding="utf-8"?>
<!-- Generator: Adobe Illustrator 16.0.0, SVG Export Plug-In . SVG Version: 6.00 Build 0)  -->
<!DOCTYPE svg PUBLIC "-//W3C//DTD SVG 1.1//EN" "http://www.w3.org/Graphics/SVG/1.1/DTD/svg11.dtd">
<svg version="1.1" id="Layer_1" xmlns="http://www.w3.org/2000/svg" xmlns:xlink="http://www.w3.org/1999/xlink" x="0px" y="0px"
	 width="35px" height="23px" viewBox="0 0 35 23" enable-background="new 0 0 35 23" xml:space="preserve">
<g>
	<g>
		<path fill="#606A71" d="M32.518,9.817l-0.905-3.622c0.246-0.053,0.432-0.272,0.432-0.535V5.076c0-1.268-1.032-2.299-2.3-2.299
			H25.62V1.572c0-0.624-0.508-1.131-1.131-1.131H3.467c-0.624,0-1.131,0.507-1.131,1.131V11.5c0,0.302,0.245,0.548,0.547,0.548
			c0.303,0,0.547-0.246,0.547-0.548V1.572c0-0.02,0.016-0.036,0.036-0.036h21.022c0.021,0,0.037,0.016,0.037,0.036V11.5
			c0,0.302,0.244,0.548,0.548,0.548c0.301,0,0.546-0.245,0.546-0.548v-0.621h6.459c0.001,0,0.001,0,0.003,0l0,0
			c0.795,0,1.469,0.522,1.7,1.242h-1.7c-0.304,0-0.549,0.244-0.549,0.546v1.17c0,0.943,0.771,1.715,1.715,1.715h0.62v2.409h-1.431
			c-0.469-1.359-1.761-2.336-3.277-2.336c-1.515,0-2.807,0.977-3.276,2.336H25.62v-4.124c0-0.303-0.245-0.55-0.546-0.55
			c-0.304,0-0.55,0.247-0.55,0.55v4.124H13.167c-0.47-1.359-1.761-2.336-3.277-2.336c-1.516,0-2.806,0.977-3.277,2.336H3.467
			c-0.02,0-0.036-0.019-0.036-0.038v-1.204h2.372c0.302,0,0.547-0.246,0.547-0.549c0-0.301-0.245-0.545-0.547-0.545H0.548
			C0.245,15.625,0,15.869,0,16.17c0,0.303,0.245,0.549,0.548,0.549h1.788v1.204c0,0.624,0.508,1.132,1.131,1.132h2.958
			c0,0.012-0.001,0.023-0.001,0.037c0,1.912,1.555,3.467,3.467,3.467c1.912,0,3.467-1.555,3.467-3.467
			c0-0.014-0.001-0.025-0.001-0.037h12.337c0,0.012,0,0.023,0,0.037c0,1.912,1.555,3.467,3.466,3.467
			c1.913,0,3.468-1.555,3.468-3.467c0-0.014,0-0.025,0-0.037h1.788c0.303,0,0.548-0.245,0.548-0.548v-5.841
			C34.964,11.226,33.901,10.028,32.518,9.817z M25.62,3.872h4.124c0.665,0,1.205,0.541,1.205,1.204v0.037H25.62V3.872z M25.62,9.785
			V6.208h4.865l0.896,3.577H25.62z M9.891,21.464c-1.308,0-2.372-1.064-2.372-2.372c0-1.31,1.064-2.373,2.372-2.373
			c1.308,0,2.373,1.063,2.373,2.373C12.263,20.399,11.199,21.464,9.891,21.464z M29.16,21.464c-1.307,0-2.372-1.064-2.372-2.372
			c0-1.31,1.065-2.373,2.372-2.373c1.309,0,2.373,1.063,2.373,2.373C31.533,20.399,30.469,21.464,29.16,21.464z M33.868,14.457
			h-0.62c-0.341,0-0.62-0.279-0.62-0.62v-0.621h1.24V14.457L33.868,14.457z"/>
	</g>
</g>
<g>
	<g>
		<path fill="#606A71" d="M9.891,17.961c-0.624,0-1.131,0.507-1.131,1.131s0.507,1.131,1.131,1.131s1.131-0.507,1.131-1.131
			S10.514,17.961,9.891,17.961z"/>
	</g>
</g>
<g>
	<g>
		<path fill="#606A71" d="M29.16,17.961c-0.623,0-1.13,0.507-1.13,1.131s0.507,1.131,1.13,1.131c0.625,0,1.132-0.507,1.132-1.131
			S29.785,17.961,29.16,17.961z"/>
	</g>
</g>
<g>
	<g>
		<path fill="#606A71" d="M22.738,15.625h-8.177c-0.302,0-0.546,0.244-0.546,0.546s0.245,0.548,0.546,0.548h8.177
			c0.303,0,0.547-0.246,0.547-0.548S23.041,15.625,22.738,15.625z"/>
	</g>
</g>
<g>
	<g>
		<path fill="#606A71" d="M8.722,13.287H1.715c-0.302,0-0.548,0.247-0.548,0.55c0,0.302,0.246,0.546,0.548,0.546h7.007
			c0.303,0,0.548-0.244,0.548-0.546C9.27,13.534,9.025,13.287,8.722,13.287z"/>
	</g>
</g>
<g>
	<g>
		<path fill="#606A71" d="M19.038,5.857c-0.214-0.214-0.561-0.214-0.775,0l-4.869,4.868l-2.532-2.533
			c-0.214-0.213-0.561-0.213-0.774,0s-0.214,0.561,0,0.774l2.92,2.92c0.106,0.107,0.246,0.161,0.386,0.161
			c0.141,0,0.281-0.054,0.387-0.161l5.257-5.255C19.252,6.417,19.252,6.071,19.038,5.857z"/>
	</g>
</g>
</svg>
