<?xml version="1.0" encoding="utf-8"?>
<!-- Generator: Adobe Illustrator 16.0.0, SVG Export Plug-In . SVG Version: 6.00 Build 0)  -->
<!DOCTYPE svg PUBLIC "-//W3C//DTD SVG 1.1//EN" "http://www.w3.org/Graphics/SVG/1.1/DTD/svg11.dtd">
<svg version="1.1" id="Layer_1" xmlns="http://www.w3.org/2000/svg" xmlns:xlink="http://www.w3.org/1999/xlink" x="0px" y="0px"
	 width="54px" height="192px" viewBox="0 0 54 192" enable-background="new 0 0 54 192" xml:space="preserve">
<g>
	<g>
		<path fill="#FFFFFF" d="M32.629,143.662l0.832,0.232c0.201,0.061,0.328,0.149,0.328,0.315c0,0.115-0.055,0.414-0.109,0.574
			c-0.27,0.922-0.85,1.672-1.24,2.264c-0.25,0.386-0.42,0.646-0.42,1.209c0,0.226,0,0.438-0.02,0.652
			c-0.17,2.729-2.418,4.09-5.279,4.09c-3.002,0-5.432-1.638-5.432-4.627c0-3.088,2.43-4.517,5.322-4.517
			c2.071,0,3.84,0.75,4.75,2.234c0.297-0.545,0.649-1.355,0.811-2.027c0.084-0.336,0.158-0.444,0.342-0.444
			C32.551,143.637,32.58,143.637,32.629,143.662z M22.92,148.436c0,1.635,1.629,2.502,3.731,2.502c2.218,0,3.779-0.752,3.779-2.502
			c0-1.647-1.609-2.49-3.779-2.49C24.412,145.945,22.92,146.689,22.92,148.436z"/>
		<path fill="#FFFFFF" d="M32.037,137.961c0,3.168-1.736,4.314-4.807,4.314h-5.379c-0.251,0-0.361-0.15-0.361-0.383v-1.187
			c0-0.256,0.11-0.358,0.361-0.358h5.218c2.21,0,3.341-0.568,3.341-2.459c0-1.808-1.197-2.382-3.341-2.382h-5.218
			c-0.251,0-0.361-0.129-0.361-0.379v-1.188c0-0.25,0.11-0.361,0.361-0.361h5.42C30.352,133.578,32.037,135.031,32.037,137.961z"/>
		<path fill="#FFFFFF" d="M22.739,127.707v0.861h7.86v-0.813c0-0.207,0.133-0.305,0.311-0.305h0.652
			c0.176,0,0.297,0.065,0.297,0.271v3.563c0,0.209-0.121,0.307-0.289,0.307h-0.672c-0.211,0-0.299-0.092-0.299-0.307v-0.787h-7.86
			v0.873c0,0.207-0.098,0.299-0.3,0.299h-0.658c-0.172,0-0.303-0.092-0.303-0.273v-3.662c0-0.215,0.141-0.317,0.293-0.317h0.66
			C22.668,127.402,22.739,127.5,22.739,127.707z"/>
		<path fill="#FFFFFF" d="M31.43,118.137c0.4,0.99,0.607,1.893,0.607,2.99c0,3.162-2.227,4.713-5.316,4.713
			c-3.081,0-5.432-1.844-5.432-4.857c0-1.045,0.211-1.965,0.632-2.819c0.089-0.185,0.168-0.244,0.251-0.244
			c0.057,0,0.119,0.022,0.197,0.037l0.94,0.354c0.131,0.037,0.202,0.121,0.202,0.207c0,0.043-0.031,0.104-0.062,0.172
			c-0.391,0.75-0.54,1.422-0.54,2.172c0,2.076,1.919,2.895,3.741,2.895c2.31,0,3.778-1.088,3.778-2.926
			c0-0.719-0.16-1.457-0.479-2.16c-0.033-0.066-0.063-0.127-0.063-0.176c0-0.111,0.072-0.184,0.22-0.244l0.813-0.301
			c0.078-0.029,0.147-0.041,0.211-0.041C31.258,117.9,31.352,117.955,31.43,118.137z"/>
		<path fill="#FFFFFF" d="M31.859,109.037v1.502c0,0.359-0.121,0.518-0.381,0.719l-4.15,3.242v0.023h4.162
			c0.27,0,0.375,0.104,0.375,0.367v1.194c0,0.271-0.105,0.379-0.375,0.379h-9.639c-0.251,0-0.361-0.127-0.361-0.379v-1.194
			c0-0.244,0.09-0.367,0.361-0.367h4.247V114.5l-4.327-3.088c-0.18-0.135-0.271-0.318-0.271-0.551v-1.201
			c0-0.152,0.092-0.238,0.201-0.238c0.059,0,0.119,0.006,0.18,0.061l4.63,3.443l4.909-3.986c0.09-0.08,0.199-0.127,0.271-0.127
			C31.791,108.799,31.859,108.885,31.859,109.037z"/>
		<path fill="#FFFFFF" d="M31.859,97.922v5.555c0,0.308-0.078,0.416-0.408,0.416h-9.6c-0.242,0-0.382-0.108-0.382-0.342v-5.664
			c0-0.238,0.091-0.316,0.25-0.316c0.03,0,0.063,0,0.092,0l0.899,0.109c0.27,0.029,0.318,0.201,0.318,0.512v3.767h2.709v-3.461
			c0-0.287,0.123-0.379,0.333-0.379h0.849c0.25,0,0.359,0.098,0.359,0.36v3.479h3v-4.021c0-0.244,0.103-0.379,0.343-0.379h0.848
			C31.738,97.557,31.859,97.668,31.859,97.922z"/>
		<path fill="#FFFFFF" d="M31.859,87.449v1.014c0,0.221-0.109,0.416-0.318,0.566l-6.689,4.891v0.029h6.617
			c0.281,0,0.391,0.129,0.391,0.391v1.08c0,0.287-0.077,0.41-0.381,0.41h-9.598c-0.32,0-0.411-0.141-0.411-0.41v-0.971
			c0-0.236,0.079-0.359,0.29-0.512l6.78-4.927v-0.034h-6.671c-0.289,0-0.391-0.123-0.391-0.392V87.46
			c0-0.312,0.171-0.364,0.412-0.364h9.57C31.791,87.09,31.859,87.23,31.859,87.449z"/>
		<path fill="#FFFFFF" d="M32.629,76.009l0.832,0.241c0.201,0.059,0.328,0.152,0.328,0.313c0,0.121-0.055,0.414-0.109,0.572
			c-0.27,0.928-0.85,1.674-1.24,2.271c-0.25,0.391-0.42,0.646-0.42,1.213c0,0.221,0,0.441-0.02,0.643
			c-0.17,2.728-2.418,4.1-5.279,4.1c-3.002,0-5.432-1.635-5.432-4.625c0-3.088,2.43-4.518,5.322-4.518
			c2.071,0,3.84,0.752,4.75,2.234c0.297-0.543,0.649-1.355,0.811-2.025c0.084-0.34,0.158-0.449,0.342-0.449
			C32.551,75.99,32.58,75.99,32.629,76.009z M22.92,80.785c0,1.635,1.629,2.502,3.731,2.502c2.218,0,3.779-0.744,3.779-2.502
			c0-1.648-1.609-2.484-3.779-2.484C24.412,78.301,22.92,79.039,22.92,80.785z"/>
		<path fill="#FFFFFF" d="M32.037,70.309c0,3.162-1.736,4.321-4.807,4.321h-5.379c-0.251,0-0.361-0.149-0.361-0.391v-1.19
			c0-0.25,0.11-0.359,0.361-0.359h5.218c2.21,0,3.341-0.571,3.341-2.461c0-1.809-1.197-2.38-3.341-2.38h-5.218
			c-0.251,0-0.361-0.14-0.361-0.378v-1.19c0-0.251,0.11-0.36,0.361-0.36h5.42C30.352,65.93,32.037,67.379,32.037,70.309z"/>
		<path fill="#FFFFFF" d="M22.739,60.061v0.849h7.86v-0.809c0-0.21,0.133-0.312,0.311-0.312h0.652c0.176,0,0.297,0.079,0.297,0.271
			v3.567c0,0.202-0.121,0.302-0.289,0.302h-0.672c-0.211,0-0.299-0.091-0.299-0.302V62.84h-7.86v0.87c0,0.21-0.098,0.299-0.3,0.299
			h-0.658c-0.172,0-0.303-0.089-0.303-0.271V60.07c0-0.211,0.141-0.312,0.293-0.312h0.66C22.668,59.75,22.739,59.85,22.739,60.061z"
			/>
		<path fill="#FFFFFF" d="M31.859,50.549v1.361c0,0.269-0.078,0.452-0.297,0.58l-3.533,2.16v1.16h3.449
			c0.221,0,0.381,0.092,0.381,0.339v1.23c0,0.262-0.121,0.359-0.381,0.359h-9.569c-0.329,0-0.439-0.079-0.439-0.408v-2.201
			c0-1.309,0.201-2.688,1.11-3.479c0.549-0.479,1.291-0.721,2.1-0.721c1.38,0,2.46,0.73,2.99,1.929l3.791-2.459
			c0.07-0.039,0.148-0.07,0.209-0.07C31.799,50.329,31.859,50.42,31.859,50.549z M22.949,55.071v0.748h3.632v-0.928
			c0-1.202-0.642-1.993-1.861-1.993C23.42,52.889,22.949,53.759,22.949,55.071z"/>
		<path fill="#FFFFFF" d="M21.86,42.142l5.71,3.088h3.949c0.219,0,0.34,0.119,0.34,0.342v1.257c0,0.232-0.121,0.342-0.381,0.342
			h-3.838l-5.803,3.25c-0.057,0.031-0.109,0.04-0.148,0.04c-0.119,0-0.211-0.101-0.211-0.272v-1.367
			c0-0.271,0.092-0.451,0.293-0.552l4.248-2.157v-0.031l-4.208-2.13c-0.241-0.122-0.321-0.241-0.321-0.531v-1.08
			c0-0.18,0.059-0.29,0.181-0.29C21.711,42.08,21.781,42.09,21.86,42.142z"/>
	</g>
</g>
</svg>
