<?xml version="1.0" encoding="utf-8"?>
<!-- Generator: Adobe Illustrator 16.0.0, SVG Export Plug-In . SVG Version: 6.00 Build 0)  -->
<!DOCTYPE svg PUBLIC "-//W3C//DTD SVG 1.1//EN" "http://www.w3.org/Graphics/SVG/1.1/DTD/svg11.dtd">
<svg version="1.1" id="Layer_1" xmlns="http://www.w3.org/2000/svg" xmlns:xlink="http://www.w3.org/1999/xlink" x="0px" y="0px"
	 width="23px" height="16px" viewBox="0 0 23 16" enable-background="new 0 0 23 16" xml:space="preserve">
<path fill="#FFFFFF" d="M15.592,0.24c-0.308-0.32-0.823-0.32-1.142,0c-0.31,0.309-0.31,0.823,0,1.131l5.795,5.797H0.8
	c-0.446,0-0.8,0.354-0.8,0.8c0,0.445,0.354,0.811,0.8,0.811h19.445l-5.795,5.784c-0.31,0.32-0.31,0.835,0,1.144
	c0.318,0.32,0.834,0.32,1.142,0l7.167-7.167c0.321-0.308,0.321-0.823,0-1.13L15.592,0.24z"/>
<path display="none" fill="#1E211E" d="M0.241,7.408c-0.321,0.307-0.321,0.822,0,1.13l7.167,7.167c0.308,0.32,0.823,0.32,1.142,0
	c0.31-0.309,0.31-0.823,0-1.144L2.755,8.778h19.444C22.646,8.778,23,8.413,23,7.968c0-0.446-0.354-0.8-0.801-0.8H2.755L8.55,1.371
	c0.31-0.308,0.31-0.822,0-1.131c-0.318-0.32-0.834-0.32-1.142,0L0.241,7.408z"/>
</svg>
