<?xml version="1.0" encoding="utf-8"?>
<!-- Generator: Adobe Illustrator 16.0.0, SVG Export Plug-In . SVG Version: 6.00 Build 0)  -->
<!DOCTYPE svg PUBLIC "-//W3C//DTD SVG 1.1//EN" "http://www.w3.org/Graphics/SVG/1.1/DTD/svg11.dtd">
<svg version="1.1" id="Layer_1" xmlns="http://www.w3.org/2000/svg" xmlns:xlink="http://www.w3.org/1999/xlink" x="0px" y="0px"
	 width="45px" height="33px" viewBox="0 0 45 33" enable-background="new 0 0 45 33" xml:space="preserve">
<g>
	<g>
		<path fill="#FFFFFF" d="M10.517,23.746c-2.486,0-4.507,2.062-4.507,4.597c0,2.534,2.021,4.596,4.507,4.596
			c2.485,0,4.507-2.062,4.507-4.596C15.024,25.808,13.002,23.746,10.517,23.746z M10.517,31.406c-1.658,0-3.005-1.375-3.005-3.063
			c0-1.689,1.348-3.064,3.005-3.064c1.657,0,3.004,1.375,3.004,3.064C13.521,30.031,12.174,31.406,10.517,31.406z"/>
	</g>
</g>
<g>
	<g>
		<path fill="#FFFFFF" d="M36.058,23.746c-2.486,0-4.507,2.062-4.507,4.597c0,2.534,2.021,4.596,4.507,4.596
			c2.484,0,4.507-2.062,4.507-4.596C40.564,25.808,38.542,23.746,36.058,23.746z M36.058,31.406c-1.656,0-3.006-1.375-3.006-3.063
			c0-1.689,1.35-3.064,3.006-3.064c1.657,0,3.005,1.375,3.005,3.064C39.063,30.031,37.715,31.406,36.058,31.406z"/>
	</g>
</g>
<g>
	<g>
		<path fill="#FFFFFF" d="M44.952,19.502l-6.76-10.724c-0.14-0.219-0.377-0.352-0.633-0.352h-8.264
			c-0.416,0-0.751,0.343-0.751,0.766v19.151c0,0.423,0.335,0.766,0.751,0.766h3.005v-1.532h-2.253V9.958h7.102l6.42,10.184v7.435
			h-3.756v1.532h4.508c0.415,0,0.751-0.343,0.751-0.766v-8.427C45.072,19.77,45.029,19.626,44.952,19.502z"/>
	</g>
</g>
<g>
	<g>
		<path fill="#FFFFFF" d="M33.052,18.384v-5.361h6.011V11.49h-6.762c-0.414,0-0.75,0.344-0.75,0.766v6.895
			c0,0.424,0.336,0.765,0.75,0.765h11.269v-1.531H33.052L33.052,18.384z"/>
	</g>
</g>
<g>
	<g>
		<path fill="#FFFFFF" d="M29.296,3.064H0.751C0.336,3.064,0,3.408,0,3.83v24.513c0,0.423,0.336,0.766,0.751,0.766h6.01v-1.532
			H1.502V4.596h27.042v22.98H14.272v1.532h15.023c0.416,0,0.752-0.343,0.752-0.766V3.83C30.048,3.408,29.712,3.064,29.296,3.064z"/>
	</g>
</g>
<g>
	<g>
		<rect x="0.751" y="24.512" fill="#FFFFFF" width="4.507" height="1.533"/>
	</g>
</g>
<g>
	<g>
		<rect x="15.775" y="24.512" fill="#FFFFFF" width="12.77" height="1.533"/>
	</g>
</g>
<g>
	<g>
		<rect x="41.314" y="24.512" fill="#FFFFFF" width="3.007" height="1.533"/>
	</g>
</g>
<g>
	<g>
		<rect x="3.004" y="6.128" fill="#FFFFFF" width="26.292" height="1.532"/>
	</g>
</g>
<g>
	<g>
		<rect x="9.765" y="27.576" fill="#FFFFFF" width="1.503" height="1.532"/>
	</g>
</g>
<g>
	<g>
		<rect x="35.307" y="27.576" fill="#FFFFFF" width="1.501" height="1.532"/>
	</g>
</g>
<g>
	<g>
		<rect x="3.004" fill="#FFFFFF" width="10.517" height="1.532"/>
	</g>
</g>
<g>
	<g>
		<rect fill="#FFFFFF" width="1.502" height="1.532"/>
	</g>
</g>
</svg>
