<?xml version="1.0" encoding="utf-8"?>
<!-- Generator: Adobe Illustrator 16.0.0, SVG Export Plug-In . SVG Version: 6.00 Build 0)  -->
<!DOCTYPE svg PUBLIC "-//W3C//DTD SVG 1.1//EN" "http://www.w3.org/Graphics/SVG/1.1/DTD/svg11.dtd">
<svg version="1.1" id="Layer_1" xmlns="http://www.w3.org/2000/svg" xmlns:xlink="http://www.w3.org/1999/xlink" x="0px" y="0px"
	 width="35px" height="35px" viewBox="0 0 35 35" enable-background="new 0 0 35 35" xml:space="preserve">
<g>
	<g id="Layer_8_16_">
	</g>
</g>
<path fill="#64BD61" d="M17.472,0.028C7.838,0.028,0,7.866,0,17.5c0,9.634,7.838,17.472,17.472,17.472S34.943,27.134,34.943,17.5
	C34.943,7.866,27.105,0.028,17.472,0.028z"/>
<path fill="#FFFFFF" d="M23.961,18.111l-10.19,6.552c-0.12,0.079-0.259,0.116-0.395,0.116c-0.119,0-0.24-0.029-0.348-0.088
	c-0.235-0.128-0.381-0.373-0.381-0.64v-9.216v-3.887c0-0.101,0.021-0.199,0.061-0.289c0.063-0.147,0.174-0.271,0.32-0.351
	c0.23-0.126,0.518-0.119,0.742,0.027l10.19,6.552c0.207,0.134,0.334,0.364,0.334,0.612C24.295,17.748,24.168,17.978,23.961,18.111z"
	/>
</svg>
