<?xml version="1.0" encoding="utf-8"?>
<!-- Generator: Adobe Illustrator 16.0.0, SVG Export Plug-In . SVG Version: 6.00 Build 0)  -->
<!DOCTYPE svg PUBLIC "-//W3C//DTD SVG 1.1//EN" "http://www.w3.org/Graphics/SVG/1.1/DTD/svg11.dtd">
<svg version="1.1" id="Layer_1" xmlns="http://www.w3.org/2000/svg" xmlns:xlink="http://www.w3.org/1999/xlink" x="0px" y="0px"
	 width="45px" height="45px" viewBox="0 0 45 45" enable-background="new 0 0 45 45" xml:space="preserve">
<g>
	<g>
		<path fill="#FFFFFF" d="M22.471,0C13.483-0.001,5.36,5.356,1.822,13.619l-0.28,0.093l0.108,0.326
			c-4.658,11.488,0.879,24.576,12.367,29.234c2.684,1.088,5.551,1.646,8.447,1.644c12.403,0.003,22.458-10.051,22.461-22.454
			C44.928,10.058,34.875,0.002,22.471,0z M40.086,33.782l-1.152-1.154v-2.684c0.001-0.115-0.025-0.23-0.076-0.335l-2.919-5.83
			v-2.818c0-0.25-0.125-0.484-0.333-0.623l-2.246-1.498c-0.176-0.117-0.394-0.155-0.599-0.103l-2.749,0.687l-4.621-1.982
			l-0.636-4.453l1.763-1.76h3.781l1.272,1.912c0.115,0.172,0.296,0.289,0.5,0.323l4.492,0.749c0.119,0.021,0.243,0.01,0.358-0.028
			l4.138-1.379C44.528,19.464,44.157,27.473,40.086,33.782z M36.999,7.376l-1.218,0.812l-3.393-0.679l-2.201-0.733
			C30.052,6.73,29.908,6.725,29.77,6.76l-2.784,0.695l-1.22-0.406l0.903-1.809H29.2c0.117,0,0.231-0.027,0.335-0.079l2.59-1.295
			C33.909,4.797,35.55,5.98,36.999,7.376z M14.265,3.169l1.797,1.198c0.088,0.059,0.188,0.098,0.292,0.115l3.628,0.605l-0.354,1.06
			l-1.891,0.631c-0.169,0.057-0.313,0.171-0.405,0.325l-2.15,3.583l-3.453,2.072l-5.091,0.727c-0.369,0.052-0.644,0.368-0.644,0.74
			v2.247c0,0.198,0.079,0.389,0.219,0.529l1.278,1.278v1.286l-3.114-2.077l-1.13-3.389C5.397,9.186,9.337,5.279,14.265,3.169z
			 M12.133,27.714L8.75,27.035l-1.258-2.509v-1.758l2.79-2.79l1.032,2.065c0.126,0.254,0.386,0.414,0.67,0.414H16.8l2.028,3.38
			c0.135,0.226,0.379,0.364,0.642,0.364h2.081l-0.524,2.624l-2.834,2.834c-0.141,0.141-0.22,0.329-0.22,0.529v1.872l-2.695,2.021
			c-0.189,0.141-0.3,0.364-0.3,0.598v2.704l-0.932-0.308l-1.314-3.287v-7.343C12.732,28.091,12.482,27.784,12.133,27.714z
			 M9.883,39.222C2.825,33.926-0.16,24.776,2.417,16.337l0.622,1.866c0.053,0.158,0.156,0.294,0.294,0.386l3.732,2.487l-0.852,0.853
			c-0.14,0.14-0.219,0.33-0.219,0.529v2.245c0,0.116,0.027,0.231,0.079,0.336l1.497,2.995c0.104,0.206,0.297,0.354,0.524,0.398
			l3.144,0.628v6.872c0,0.096,0.018,0.189,0.053,0.277l1.497,3.743c0.082,0.205,0.25,0.361,0.459,0.431l2.246,0.75
			c0.075,0.026,0.154,0.04,0.233,0.04c0.413,0,0.749-0.335,0.749-0.75v-3.369l2.695-2.021c0.188-0.141,0.299-0.364,0.299-0.599V32.5
			l2.775-2.775c0.104-0.104,0.176-0.237,0.205-0.383l0.749-3.743c0.081-0.404-0.183-0.8-0.588-0.881
			c-0.048-0.009-0.097-0.015-0.146-0.015h-2.571l-2.028-3.379c-0.135-0.226-0.378-0.363-0.641-0.363h-4.777L11.16,18.38
			c-0.107-0.215-0.313-0.366-0.55-0.404c-0.237-0.042-0.48,0.037-0.649,0.209l-0.972,0.968v-1.188c0-0.199-0.079-0.389-0.219-0.529
			l-1.278-1.278v-1.287l4.598-0.657c0.098-0.015,0.193-0.048,0.279-0.1l3.742-2.245c0.105-0.063,0.193-0.152,0.257-0.256
			l2.103-3.506l1.983-0.662c0.224-0.073,0.399-0.25,0.474-0.474l0.747-2.246c0.13-0.393-0.083-0.816-0.476-0.946
			c-0.035-0.012-0.072-0.021-0.11-0.027l-4.333-0.722l-0.761-0.507c4.711-1.534,9.812-1.344,14.396,0.535l-1.366,0.683h-2.818
			c-0.285-0.001-0.546,0.159-0.673,0.414l-1.497,2.994c-0.187,0.37-0.035,0.819,0.335,1.004c0.032,0.015,0.063,0.029,0.099,0.04
			l2.244,0.749c0.135,0.046,0.28,0.052,0.418,0.017l2.783-0.695l2.039,0.679c0.029,0.011,0.06,0.019,0.091,0.024l3.743,0.75
			c0.194,0.039,0.396-0.001,0.562-0.111l1.704-1.137c0.838,0.935,1.593,1.941,2.252,3.009l-3.684,1.227l-3.987-0.665l-1.318-1.976
			c-0.139-0.207-0.37-0.332-0.618-0.333h-4.492c-0.198,0-0.389,0.079-0.529,0.219l-2.246,2.246
			c-0.166,0.166-0.246,0.402-0.211,0.635l0.748,5.24c0.037,0.259,0.208,0.479,0.448,0.582l5.241,2.246
			c0.15,0.065,0.317,0.079,0.476,0.039l2.674-0.668l1.634,1.091v2.594c0,0.117,0.023,0.231,0.074,0.335l2.92,5.831v2.818
			c0,0.196,0.079,0.388,0.221,0.528l1.565,1.566C32.277,44.293,19.141,46.167,9.883,39.222z"/>
	</g>
</g>
</svg>
