<?xml version="1.0" encoding="utf-8"?>
<!-- Generator: Adobe Illustrator 16.0.0, SVG Export Plug-In . SVG Version: 6.00 Build 0)  -->
<!DOCTYPE svg PUBLIC "-//W3C//DTD SVG 1.1//EN" "http://www.w3.org/Graphics/SVG/1.1/DTD/svg11.dtd">
<svg version="1.1" id="Layer_1" xmlns="http://www.w3.org/2000/svg" xmlns:xlink="http://www.w3.org/1999/xlink" x="0px" y="0px"
	 width="30px" height="30px" viewBox="0 0 30 30" enable-background="new 0 0 30 30" xml:space="preserve">
<g>
	<g>
		<path fill="#FFFFFF" d="M12.215,24.428c3.025,0,5.791-1.11,7.927-2.938l8.237,8.236c0.187,0.186,0.43,0.277,0.674,0.277
			s0.485-0.092,0.672-0.277c0.187-0.188,0.279-0.43,0.279-0.674s-0.093-0.488-0.279-0.674l-8.237-8.236
			c1.829-2.135,2.941-4.902,2.941-7.927C24.429,5.479,18.949,0,12.215,0C5.48,0,0,5.479,0,12.214
			C0,18.948,5.479,24.428,12.215,24.428z M12.215,1.903c5.685,0,10.312,4.625,10.312,10.311s-4.627,10.312-10.312,10.312
			c-5.686,0-10.312-4.626-10.312-10.312C1.903,6.528,6.528,1.903,12.215,1.903z"/>
		<path fill="#FFFFFF" d="M8.54,13.167h2.392v2.391c0,0.525,0.426,0.953,0.952,0.953c0.526,0,0.952-0.426,0.952-0.953v-2.391h2.394
			c0.525,0,0.95-0.427,0.95-0.953s-0.425-0.952-0.95-0.952h-2.394V8.87c0-0.526-0.425-0.951-0.952-0.951
			c-0.525,0-0.952,0.425-0.952,0.951v2.393H8.54c-0.525,0-0.952,0.426-0.952,0.952S8.014,13.167,8.54,13.167z"/>
	</g>
</g>
</svg>
